{"title":"The Powerpuff Girls Movie (2002) 1080P HDTV","uid":15738604,"size":4289374538,"categoryP":"video","categoryS":"hd___movies","magnet":"?xt=urn:btih:47b88321baeec30468e1bd532b1f3386ce6d3c25&amp;dn=The+Powerpuff+Girls+Movie+%282002%29+1080P+HDTV&amp;tr=udp%3A%2F%2Ftracker.leechers-paradise.org%3A6969&amp;tr=udp%3A%2F%2Fzer0day.ch%3A1337&amp;tr=udp%3A%2F%2Fopen.demonii.com%3A1337&amp;tr=udp%3A%2F%2Ftracker.coppersurfer.tk%3A6969&amp;tr=udp%3A%2F%2Fexodus.desync.com%3A6969","seeders":7,"leechers":4,"uploader":"jmanwf","files":1,"time":1472868388,"description":"Storyline\r\n\r\nIn the city of Townsville, the frustrated Professor Utonium is gathering all the ingredients to make a perfect little girl (sugar, spice, and everything nice). But when his lab assitant, a monkey named Jojo, causes the accidental addition of Chemical X to the mix, the Professor ends up with not one but 3 perfect, powerful little girls. It soon becomes obvious that Blossom, Bubbles, and Buttercup are not normal girls, they have superpowers and have not yet learned to control. The girls are treated like outcasts because they have inadvertently wrecked Townsville in a superpowered game of tag. To win the hearts of the people of Townsville, the girls are tricked into making a deal with Jojo who plans to take over Townsville. As the girls foil this threat and defeat an army of superpowered monkeys, the Powerpuff Girls learn that with great power comes great responsibility\r\n\r\n\r\nVideo\r\nID : 1\r\nFormat : AVC\r\nFormat/Info : Advanced Video Codec\r\nFormat profile :   \r\nFormat settings, CABAC : Yes\r\nFormat settings, ReFrames : 3 frames\r\nCodec ID : avc1\r\nCodec ID/Info : Advanced Video Coding\r\nDuration : 1h 10mn\r\nBit rate mode : Variable\r\nBit rate : 7 967 Kbps\r\nMaximum bit rate : 30.0 Mbps\r\nWidth : 1 920 pixels\r\nHeight : 1 080 pixels\r\nDisplay aspect ratio : 16:9\r\nFrame rate mode : Variable\r\nFrame rate : 24.000 fps\r\nMinimum frame rate : 12.000 fps\r\nMaximum frame rate : 24.000 fps\r\nColor space : YUV\r\nChroma subsampling : 4:2:0\r\nBit depth : 8 bits\r\nScan type : Progressive\r\nBits/(Pixel*Frame) : 0.160\r\nStream size : 3.93 GiB (98%)\r\nColor range : Limited\r\nColor primaries : BT.709\r\nTransfer characteristics : BT.709\r\nMatrix coefficients : BT.709\r\n\r\nAudio\r\nID : 2\r\nFormat : AAC\r\nFormat/Info : Advanced Audio Codec\r\nFormat profile : LC\r\nCodec ID : 40\r\nDuration : 1h 10mn\r\nBit rate mode : Constant\r\nBit rate : 129 Kbps\r\nChannel(s) : 2 channels\r\nChannel positions : Front: L R\r\nSampling rate : 48.0 KHz\r\nFrame rate : 46.875 fps (1024 spf)\r\nCompression mode : Lossy\r\nStream size : 65.3 MiB (2%)\r\nLanguage : English\r\nDefault : Yes\r\nAlternate group : 1\r\n\r\n \nhttps://s10.postimg.org/oiqwxpjjt/image.jpg\r\n\r\n\r\n \nhttps://s10.postimg.org/64gdtq795/image.jpg\r\n\r\n\r\n\r\n \nhttps://s10.postimg.org/aev1pbcc9/image.jpg\r\n\r\n\r\n\r\n \nhttp://www.imdb.com/title/tt0289408/","torrent":{"xt":"urn:btih:47b88321baeec30468e1bd532b1f3386ce6d3c25","amp;dn":"The+Powerpuff+Girls+Movie+%282002%29+1080P+HDTV","amp;tr":["udp%3A%2F%2Ftracker.leechers-paradise.org%3A6969","udp%3A%2F%2Fzer0day.ch%3A1337","udp%3A%2F%2Fopen.demonii.com%3A1337","udp%3A%2F%2Ftracker.coppersurfer.tk%3A6969","udp%3A%2F%2Fexodus.desync.com%3A6969"],"infoHash":"47b88321baeec30468e1bd532b1f3386ce6d3c25","infoHashBuffer":{"type":"Buffer","data":[71,184,131,33,186,238,195,4,104,225,189,83,43,31,51,134,206,109,60,37]},"announce":[],"urlList":[]}}